<?xml version="1.0" encoding="utf-8"?>
<!-- Generator: Adobe Illustrator 15.1.0, SVG Export Plug-In . SVG Version: 6.00 Build 0)  -->
<!DOCTYPE svg PUBLIC "-//W3C//DTD SVG 1.1//EN" "http://www.w3.org/Graphics/SVG/1.1/DTD/svg11.dtd">
<svg version="1.1" id="Layer_1" xmlns="http://www.w3.org/2000/svg" xmlns:xlink="http://www.w3.org/1999/xlink" x="0px" y="0px"
	 width="128px" height="128px" viewBox="152 242 128 128" enable-background="new 152 242 128 128" xml:space="preserve">
<title>HTML5 Connectivity Logo</title>
<path fill="#330000" d="M246.5,328.823h15.112v-36.284l-17.025-17.025L233.9,286.199l12.6,12.6V328.823z M261.652,336.398h-22.01
	H208.94l-12.6-12.6l5.343-5.343l10.407,10.407h21.411l-21.093-21.133l5.383-5.383l21.093,21.093v-21.412l-10.367-10.367l5.304-5.303
	l-26.196-26.316h-25.838l0,0h-26.794l15.072,15.072v0.04h0.08h31.181l11.044,11.044l-16.148,16.148l-11.044-11.045v-8.572h-15.112
	v14.833l26.156,26.157l-10.646,10.646l17.025,17.025h25.838h48.285l0,0L261.652,336.398z"/>
</svg>
