<?xml version="1.0" encoding="utf-8"?>
<!-- Generator: Adobe Illustrator 15.1.0, SVG Export Plug-In . SVG Version: 6.00 Build 0)  -->
<!DOCTYPE svg PUBLIC "-//W3C//DTD SVG 1.1//EN" "http://www.w3.org/Graphics/SVG/1.1/DTD/svg11.dtd">
<svg version="1.1" id="Layer_1" xmlns="http://www.w3.org/2000/svg" xmlns:xlink="http://www.w3.org/1999/xlink" x="0px" y="0px"
	 width="128px" height="128px" viewBox="152 242 128 128" enable-background="new 152 242 128 128" xml:space="preserve">
<title>HTML5 Offline Storage Logo</title>
<path fill="#330000" d="M277.046,285.93h-19.519c-8.004-19.232-27.072-32.259-48.266-32.259c-28.829,0-52.309,23.438-52.309,52.309
	c0,28.869,23.479,52.349,52.309,52.349c21.193,0,40.221-12.984,48.266-32.259h19.479v-40.14H277.046z M261.529,310.512h-52.268
	c-2.491,0-4.533-2.001-4.533-4.532c0-2.491,2.001-4.533,4.533-4.533h52.227v9.065H261.529z M209.262,342.812
	c-20.295,0-36.792-16.497-36.792-36.792s16.497-36.792,36.792-36.792c12.576,0,24.133,6.534,30.83,16.742h-30.83
	c-11.025,0-20.05,8.983-20.05,20.049c0,11.025,8.984,20.049,20.05,20.049h30.83C233.436,336.278,221.879,342.812,209.262,342.812z"
	/>
</svg>
