<?xml version="1.0" encoding="utf-8"?>
<!-- Generator: Adobe Illustrator 15.1.0, SVG Export Plug-In . SVG Version: 6.00 Build 0)  -->
<!DOCTYPE svg PUBLIC "-//W3C//DTD SVG 1.1//EN" "http://www.w3.org/Graphics/SVG/1.1/DTD/svg11.dtd">
<svg version="1.1" id="Layer_1" xmlns="http://www.w3.org/2000/svg" xmlns:xlink="http://www.w3.org/1999/xlink" x="0px" y="0px"
	 width="128px" height="128px" viewBox="152 242 128 128" enable-background="new 152 242 128 128" xml:space="preserve">
<title>HTML5 Logo Badge</title>
<path fill="#330000" d="M173.107,353.96l-9.438-105.889h103.817l-9.438,105.889l-42.586,11.97"/>
<path opacity="0.25" fill="#FFFFFF" d="M215.693,356.722l34.299-9.438l8.057-90.696h-42.355"/>
<path fill="#EBEBEB" d="M215.693,295.951h-17.265l-1.151-13.352h18.416v-12.891h-0.23h-32.457l0.23,3.453l3.223,35.91h29.234
	V295.951z M215.693,329.789h-0.23l-14.502-3.913l-0.921-10.358h-6.906h-5.985l1.611,20.487l26.702,7.366h0.23V329.789z"/>
<path fill="#FFFFFF" d="M215.463,295.951v13.121h16.113l-1.611,16.804l-14.502,3.913v13.582l26.702-7.366l0.23-2.302l2.993-34.299
	l0.46-3.453h-3.684H215.463z M215.463,269.709v8.057v4.834l0,0H247l0,0l0,0l0.229-2.762l0.69-6.676l0.23-3.453H215.463z"/>
</svg>
