<?xml version="1.0" encoding="utf-8"?>
<!-- Generator: Adobe Illustrator 15.1.0, SVG Export Plug-In . SVG Version: 6.00 Build 0)  -->
<!DOCTYPE svg PUBLIC "-//W3C//DTD SVG 1.1//EN" "http://www.w3.org/Graphics/SVG/1.1/DTD/svg11.dtd">
<svg version="1.1" xmlns="http://www.w3.org/2000/svg" xmlns:xlink="http://www.w3.org/1999/xlink" x="0px" y="0px" width="16px"
	 height="16px" viewBox="0 0 16 16" enable-background="new 0 0 16 16" xml:space="preserve">
<g id="Layer_1">
	<circle fill="none" stroke="#A04444" stroke-width="0.5" stroke-miterlimit="10" cx="8.002" cy="7.719" r="5.803"/>
	<g>
		<path fill="#E4B76A" d="M9.25,4.546C8.955,3.987,8.522,3.499,8,3.142c0,0.272,0,0.544,0,0.816c0.152,0.14,0.291,0.294,0.414,0.459
			C8.725,4.456,9.02,4.545,9.31,4.658L9.25,4.546C9.05,4.164,9.25,4.546,9.25,4.546z"/>
		<path fill="#E4B76A" d="M4.942,8.997C4.821,8.709,4.749,8.408,4.704,8.102C4.338,8.678,4.101,9.308,4.045,9.993
			c0.237-0.136,0.472-0.271,0.708-0.409c-0.001,0-0.001,0-0.001,0C4.797,9.384,4.861,9.186,4.942,8.997L4.942,8.997z"/>
		<path fill="#E4B76A" d="M11.906,9.963c-0.219-0.126-0.439-0.253-0.658-0.379l0,0c-0.195,0.062-0.398,0.105-0.603,0.129
			c-0.188,0.25-0.413,0.463-0.657,0.654c0.682,0.031,1.35-0.078,1.968-0.374L11.906,9.963L11.906,9.963z"/>
	</g>
	<g>
		<path fill="#E4B76A" d="M9.133,6.513c-1.414-0.422-2.981-0.002-4,1.062C5.117,7.879,5.159,8.176,5.229,8.471l0.061-0.086
			c0.853-1.191,2.409-1.68,3.793-1.215c0.049-0.211,0.075-0.429,0.082-0.646L9.133,6.513C8.768,6.404,9.133,6.513,9.133,6.513z"/>
		<path fill="#E4B76A" d="M9.941,9.724C8.48,9.578,7.282,8.478,6.992,7.045C6.785,7.111,6.583,7.194,6.391,7.296
			c0.329,1.451,1.483,2.616,2.926,2.967c0.271-0.136,0.51-0.32,0.728-0.529L9.941,9.724C9.42,9.672,9.941,9.724,9.941,9.724z"/>
		<path fill="#E4B76A" d="M9.559,5.316L9.553,5.298C9.301,5.132,9.02,5.019,8.73,4.934L8.773,5.03
			C9.381,6.363,9.025,7.957,7.93,8.922C8.09,9.07,8.262,9.201,8.448,9.316C9.531,8.308,9.967,6.74,9.559,5.316
			C9.559,5.316,9.694,5.789,9.559,5.316z"/>
	</g>
	<g>
		<path fill="#E2D96A" d="M6.778,4.523C4.676,5.33,3.917,8.026,5.304,9.807c0.293,0.036,0.583,0.03,0.875,0L6.104,9.734
			c-1.307-1.22-1.095-3.407,0.41-4.365l0.016-0.01c0.085-0.31,0.215-0.602,0.368-0.883L6.778,4.523
			C6.141,4.768,6.778,4.523,6.778,4.523z"/>
		<path fill="#E2D96A" d="M11.158,8.981c-0.111-0.263-0.258-0.51-0.432-0.739l-0.021,0.102c-0.406,1.741-2.402,2.652-3.988,1.828
			l-0.016-0.01c-0.312,0.082-0.628,0.115-0.948,0.123l0.099,0.082c1.757,1.418,4.457,0.721,5.314-1.366L11.158,8.981
			C11.104,8.855,11.158,8.981,11.158,8.981z"/>
		<path fill="#E2D96A" d="M11.096,6.266c-0.629-1.346-2.091-2.13-3.56-1.936C7.358,4.564,7.218,4.82,7.097,5.088
			c1.74-0.546,3.596,0.646,3.677,2.509v0.018c0.224,0.231,0.411,0.488,0.581,0.76l0.02-0.126
			C11.482,7.574,11.385,6.887,11.096,6.266C10.797,5.63,11.385,6.887,11.096,6.266z"/>
	</g>
	<path fill="#E4B76A" d="M8,3.259c0-0.04,0-0.078,0-0.117l0,0C6.809,3.964,6.169,5.396,6.311,6.831
		c0.201-0.094,0.407-0.176,0.622-0.238l0-0.038C6.89,5.584,7.286,4.619,8,3.958c-0.01-0.21,0.059-0.422,0.1-0.627L8,3.259L8,3.259z"
		/>
	<path fill="#E4B76A" d="M8.03,9.571C7.866,9.458,7.71,9.33,7.567,9.191L7.536,9.21c-0.82,0.522-1.855,0.665-2.784,0.374
		C4.575,9.699,4.357,9.746,4.159,9.812L4.145,9.934c-0.034,0.021-0.067,0.039-0.1,0.058v0.002c1.305,0.614,2.871,0.462,4.04-0.381
		L8.03,9.571C7.877,9.465,8.03,9.571,8.03,9.571z"/>
	<path fill="#E4B76A" d="M11.953,9.959c-0.132-1.429-1.044-2.685-2.348-3.275c-0.02,0.223-0.053,0.442-0.104,0.66l0.032,0.016
		c0.861,0.45,1.502,1.275,1.715,2.225c0.188,0.098,0.338,0.26,0.494,0.4l0.113-0.049c0.033,0.019,0.065,0.037,0.1,0.058l0,0
		L11.953,9.959C11.935,9.768,11.953,9.959,11.953,9.959z"/>
	<circle fill="#471D1C" cx="8.001" cy="13.523" r="1.911"/>
	<animateTransform attributeName="transform" dur="3s" type="rotate" from="0 8 8" to="360 8 8" repeatCount="indefinite" />
</g>
</svg>
