<?xml version="1.0" encoding="utf-8"?>
<!-- Generator: Adobe Illustrator 15.1.0, SVG Export Plug-In . SVG Version: 6.00 Build 0)  -->
<!DOCTYPE svg PUBLIC "-//W3C//DTD SVG 1.1//EN" "http://www.w3.org/Graphics/SVG/1.1/DTD/svg11.dtd">
<svg version="1.1" xmlns="http://www.w3.org/2000/svg" xmlns:xlink="http://www.w3.org/1999/xlink" x="0px" y="0px" width="256px" height="256px" viewBox="0 0 256 256" enable-background="new 0 0 256 256" xml:space="preserve" onload="init(evt)">
<script>
<![CDATA[
var clockTick = 0;
var svgDocument = null;
var object = null;
var bigdisc = null;
var littledisc = null;

function init(e) {
	svgDocument = event.target.ownerDocument;
	object = svgDocument.getElementById('Layer_1');
	bigdisc = svgDocument.getElementById('bigdisc');
	littledisc = svgDocument.getElementById('littledisc');
	animate();
}
function animate() {
	object.setAttribute('transform', 'rotate('+360/20/50*clockTick+', 128,128)');
	bigdisc.setAttribute('transform', 'rotate('+360/7/50*clockTick+', 128,128)');
	littledisc.setAttribute('transform', 'rotate('+360/3/50*clockTick+', 128,128)');
	clockTick++;
	window.setTimeout('animate()', 20); // 1/50th of a second
}
//]]>
</script>
<g id="Layer_1">
	<g>
		<g>
			<path fill="#E4B76A" d="M128.259,24.411c4.292,3.84,8.234,8.104,11.729,12.679c5.884,0.803,11.695,2.186,17.328,4.119
				c-5.074-8.896-11.406-16.945-18.857-23.965c-3.453-3.275-7.168-6.334-11.056-9.104v15.505l0,0L128.259,24.411z"/>
			<path fill="#FAF1DE" d="M161.215,42.983c-5.457-10.331-12.521-19.618-20.993-27.604c-3.761-3.568-7.833-6.89-12.097-9.869
				l-0.723-0.507V6.57V8.14c3.888,2.771,7.603,5.829,11.056,9.104c7.451,7.02,13.783,15.069,18.857,23.965
				c-5.633-1.934-11.444-3.316-17.328-4.119c-3.494-4.575-7.437-8.839-11.729-12.679l-0.856-0.767l0,0v1.725v1.734
				c0.001-0.002,0.002-0.003,0.004-0.004c3.968,3.646,7.617,7.667,10.857,11.963l0.325,0.431l0.531,0.069
				c6.997,0.913,13.894,2.668,20.499,5.216l3.196,1.233L161.215,42.983z"/>
		</g>
		<g>
			<path fill="#E4B76A" d="M36.771,179.901c1.18-5.638,2.9-11.183,5.116-16.496c-2.246-5.496-3.955-11.221-5.096-17.065
				c-5.167,8.843-8.972,18.351-11.327,28.312c-1.11,4.628-1.901,9.376-2.355,14.13l13.427-7.755h-0.001L36.771,179.901z"/>
			<path fill="#FAF1DE" d="M36.375,142.074c-6.217,9.892-10.729,20.653-13.407,31.981c-1.209,5.045-2.05,10.229-2.499,15.412
				l-0.076,0.88l1.355-0.782l1.36-0.784c0.454-4.754,1.245-9.502,2.355-14.13c2.355-9.961,6.16-19.469,11.327-28.312
				c1.141,5.845,2.85,11.569,5.096,17.065c-2.216,5.313-3.937,10.858-5.116,16.496l-0.236,1.125h0.001l1.493-0.861l1.502-0.867
				c-0.001,0-0.003,0-0.005,0c1.173-5.26,2.83-10.432,4.932-15.385l0.21-0.497l-0.206-0.497c-2.708-6.515-4.636-13.363-5.731-20.361
				l-0.531-3.384L36.375,142.074z"/>
		</g>
		<g>
			<path fill="#E4B76A" d="M217.174,181.387c-5.472,1.799-11.137,3.082-16.843,3.817c-3.64,4.694-7.74,9.037-12.233,12.948
				c10.243,0.054,20.379-1.406,30.184-4.347c4.562-1.353,9.068-3.044,13.411-5.024l-13.426-7.753v0.001L217.174,181.387z"/>
			<path fill="#FAF1DE" d="M184.611,200.644c11.675,0.438,23.25-1.035,34.401-4.38c4.973-1.475,9.883-3.338,14.595-5.542
				l0.801-0.372l-1.354-0.782l-1.361-0.786c-4.343,1.98-8.849,3.672-13.411,5.024c-9.805,2.94-19.94,4.4-30.184,4.347
				c4.493-3.911,8.594-8.254,12.233-12.948c5.706-0.735,11.371-2.019,16.843-3.817l1.093-0.357v-0.001l-1.494-0.863l-1.5-0.865
				c0,0,0,0.004,0,0.005c-5.143,1.614-10.447,2.764-15.789,3.423l-0.535,0.063l-0.327,0.428
				c-4.287,5.602-9.257,10.698-14.767,15.146l-2.667,2.151L184.611,200.644z"/>
		</g>
	</g>
	<g>
		<g>
			<path fill="#E4B76A" d="M127.392,93.045c-10.487,0-20.621,1.525-30.196,4.374c-4.965,1.476-9.781,3.303-14.412,5.459
				c-11.93,5.548-22.66,13.244-31.696,22.596c-0.052,1.051-0.071,2.109-0.071,3.168c0,6.009,0.7,11.853,2.02,17.465
				c8.364-11.688,19.409-21.32,32.23-28.003c4.4-2.304,9.011-4.252,13.796-5.811c8.922-2.92,18.446-4.496,28.33-4.496
				c9.896,0,19.426,1.584,28.36,4.502c1.038-4.894,1.676-9.857,1.886-14.86C148.05,94.578,137.895,93.045,127.392,93.045z"/>
			<path fill="#FAF1DE" d="M52.436,149.15l-0.647-2.751c-1.363-5.79-2.055-11.767-2.055-17.758c0-1.187,0.023-2.243,0.072-3.231
				l0.022-0.482l0.336-0.346c9.258-9.581,20.051-17.274,32.078-22.868c4.696-2.185,9.604-4.044,14.588-5.524
				c9.876-2.937,20.159-4.427,30.562-4.427c10.423,0,20.722,1.495,30.613,4.446l0.957,0.286l-0.042,0.998
				c-0.213,5.025-0.855,10.097-1.912,15.072l-0.297,1.396l-1.356-0.443c-9.02-2.945-18.427-4.438-27.963-4.438
				c-9.544,0-18.941,1.49-27.931,4.432c-4.664,1.519-9.24,3.446-13.602,5.729c-12.542,6.537-23.531,16.086-31.78,27.611
				L52.436,149.15z M52.346,126.017c-0.032,0.808-0.046,1.672-0.046,2.625c0,4.851,0.468,9.688,1.393,14.418
				c8.267-10.823,18.927-19.811,30.979-26.093c4.486-2.349,9.194-4.331,13.992-5.895c9.247-3.024,18.912-4.558,28.728-4.558
				c9.325,0,18.532,1.388,27.389,4.129c0.796-4.057,1.308-8.171,1.528-12.258c-9.358-2.692-19.08-4.058-28.917-4.058
				c-10.155,0-20.191,1.454-29.831,4.32c-4.864,1.445-9.653,3.26-14.236,5.392C71.729,109.432,61.31,116.824,52.346,126.017z"/>
		</g>
		<g>
			<path fill="#E4B76A" d="M96.643,146.469c5.245,9.081,11.634,17.094,18.887,23.963c3.76,3.562,7.751,6.817,11.935,9.752
				c10.769,7.558,22.799,13.003,35.415,16.152c0.937-0.481,1.863-0.995,2.78-1.522c5.202-3.006,9.915-6.532,14.113-10.482
				c-14.301-1.4-28.167-6.15-40.365-13.91c-4.193-2.659-8.188-5.678-11.93-9.044c-6.988-6.267-13.116-13.725-18.059-22.284
				c-4.947-8.571-8.341-17.617-10.282-26.812c-4.757,1.546-9.374,3.478-13.812,5.797C87.643,127.813,91.391,137.37,96.643,146.469z"
				/>
			<path fill="#FAF1DE" d="M163.036,197.697l-0.468-0.117c-12.926-3.227-24.984-8.726-35.843-16.348
				c-4.237-2.971-8.301-6.293-12.079-9.87c-7.482-7.087-13.913-15.246-19.114-24.253c-5.21-9.024-9.064-18.693-11.456-28.735
				l-0.23-0.974l0.885-0.46c4.46-2.33,9.175-4.309,14.011-5.881l1.356-0.441l0.295,1.396c1.959,9.282,5.369,18.177,10.138,26.437
				c4.772,8.265,10.762,15.658,17.803,21.973c3.649,3.281,7.607,6.278,11.762,8.913c11.935,7.594,25.697,12.337,39.803,13.717
				l2.812,0.276l-2.059,1.936c-4.33,4.072-9.158,7.658-14.352,10.657c-1.044,0.604-1.971,1.11-2.834,1.554L163.036,197.697z
				 M86.81,118.753c2.348,9.453,6.027,18.556,10.944,27.074c5.077,8.791,11.354,16.756,18.657,23.673
				c3.687,3.491,7.652,6.733,11.789,9.633c10.466,7.347,22.077,12.675,34.52,15.84c0.705-0.371,1.463-0.789,2.3-1.271
				c4.201-2.428,8.156-5.253,11.789-8.417c-13.508-1.745-26.62-6.485-38.091-13.783c-4.273-2.709-8.344-5.795-12.099-9.171
				c-7.241-6.494-13.402-14.097-18.311-22.599c-4.663-8.076-8.063-16.743-10.119-25.784
				C94.278,115.288,90.462,116.901,86.81,118.753z"/>
		</g>
		<g>
			<path fill="#E4B76A" d="M158.256,146.456c5.244-9.081,8.989-18.62,11.311-28.338c1.206-5.036,2.03-10.121,2.479-15.209
				c1.161-13.105-0.141-26.247-3.719-38.748c-0.884-0.571-1.792-1.116-2.71-1.646c-5.203-3.003-10.612-5.319-16.133-6.981
				c5.938,13.086,8.758,27.467,8.136,41.912c-0.206,4.963-0.823,9.93-1.867,14.854c-1.933,9.186-5.328,18.223-10.271,26.782
				c-4.949,8.568-11.086,16.03-18.079,22.311c3.717,3.346,7.7,6.378,11.926,9.064C146.601,163.581,153.005,155.553,158.256,146.456z
				"/>
			<path fill="#FAF1DE" d="M139.484,172.073l-0.845-0.536c-4.246-2.695-8.315-5.79-12.096-9.192l-1.062-0.955l1.062-0.954
				c7.059-6.336,13.056-13.736,17.826-21.996c4.772-8.266,8.177-17.149,10.126-26.404c1.017-4.8,1.638-9.727,1.839-14.642
				c0.61-14.133-2.165-28.423-8.021-41.33l-1.167-2.572l2.706,0.814c5.69,1.712,11.209,4.101,16.406,7.099
				c1.045,0.604,1.948,1.153,2.763,1.678l0.404,0.263l0.132,0.463c3.67,12.809,4.935,26.003,3.766,39.215
				c-0.457,5.157-1.3,10.337-2.511,15.395c-2.394,10.024-6.245,19.673-11.446,28.681c-5.21,9.025-11.657,17.198-19.157,24.289
				L139.484,172.073z M129.32,161.377c3.117,2.718,6.424,5.22,9.852,7.454c7.013-6.761,13.056-14.5,17.974-23.016
				c5.078-8.792,8.837-18.212,11.174-27.995c1.181-4.937,2.003-9.99,2.449-15.024c1.128-12.737-0.064-25.456-3.543-37.815
				c-0.673-0.425-1.413-0.871-2.25-1.354c-4.203-2.426-8.627-4.439-13.183-6.002c5.238,12.57,7.693,26.297,7.106,39.876
				c-0.209,5.059-0.845,10.127-1.892,15.064c-2.004,9.521-5.507,18.657-10.414,27.157C141.929,147.8,136.122,155.079,129.32,161.377
				z"/>
		</g>
	</g>
	<g>
		<g>
			<path fill="#E2D96A" d="M86.49,64.169c2.041-7.131,4.816-14.044,8.307-20.625c-34.199,13.142-58.532,46.332-58.532,85.098
				c0,4.873,0.385,9.659,1.128,14.327c1.136,7.178,3.117,14.079,5.831,20.601c3.078,7.383,7.094,14.271,11.904,20.524
				c3.667,0.456,7.362,0.687,11.07,0.687c3.02,0,6.016-0.147,8.991-0.448c-10.802-10.115-18.664-23.34-22.154-38.226
				c-1.319-5.612-2.02-11.456-2.02-17.465c0-1.059,0.02-2.117,0.071-3.168C52.138,99.709,66.018,77.196,86.49,64.169z"/>
			<path fill="#FAF1DE" d="M66.198,186.062c-3.735,0-7.513-0.234-11.229-0.696l-0.53-0.065l-0.327-0.423
				c-4.916-6.392-8.979-13.395-12.072-20.814c-2.793-6.714-4.781-13.743-5.912-20.894c-0.761-4.764-1.146-9.655-1.146-14.528
				c0-19.033,5.767-37.322,16.674-52.895c10.661-15.218,25.42-26.768,42.682-33.4l3.197-1.229l-1.604,3.026
				c-3.426,6.463-6.188,13.319-8.206,20.379l-0.134,0.469l-0.41,0.261c-20.797,13.233-33.811,35.765-34.812,60.273
				c-0.047,0.955-0.068,1.971-0.068,3.116c0,5.796,0.667,11.573,1.984,17.171c3.377,14.404,10.908,27.4,21.782,37.583l2.06,1.93
				l-2.808,0.283C72.33,185.91,69.262,186.062,66.198,186.062z M55.818,182.886c5.466,0.644,11.035,0.774,16.457,0.405
				c-10.149-10.215-17.211-22.91-20.488-36.892c-1.362-5.79-2.054-11.767-2.054-17.758c0-1.187,0.023-2.244,0.072-3.231
				c1.028-25.177,14.318-48.343,35.587-62.06c1.731-5.955,3.979-11.767,6.698-17.322c-32.763,14.063-54.543,46.835-54.543,82.613
				c0,4.739,0.373,9.492,1.112,14.126c1.099,6.951,3.033,13.783,5.747,20.311C47.347,170.126,51.184,176.787,55.818,182.886z"/>
		</g>
		<g>
			<path fill="#E2D96A" d="M92.087,196.326c-7.196,1.8-14.572,2.851-22.016,3.12c28.48,23.046,69.391,27.524,102.963,8.142
				c4.222-2.438,8.173-5.162,11.845-8.142c5.646-4.572,10.633-9.738,14.926-15.35c4.854-6.355,8.811-13.278,11.822-20.571
				c-1.439-3.406-3.087-6.72-4.942-9.931c-1.509-2.615-3.134-5.135-4.884-7.562c-3.358,14.411-10.88,27.831-22.028,38.298
				c-4.198,3.95-8.911,7.477-14.113,10.482c-0.917,0.527-1.844,1.041-2.78,1.522C140.041,208.307,113.604,207.542,92.087,196.326z"
				/>
			<path fill="#FAF1DE" d="M127.629,221.061c-21.207,0-41.935-7.323-58.365-20.616l-2.663-2.157l3.425-0.124
				c7.312-0.263,14.63-1.299,21.751-3.081l0.473-0.118l0.431,0.223c10.74,5.601,22.813,8.561,34.916,8.561
				c12.025,0,24.021-2.957,34.688-8.548c0.836-0.429,1.726-0.917,2.736-1.497c5.02-2.9,9.688-6.368,13.874-10.306
				c10.787-10.128,18.276-23.147,21.657-37.654l0.642-2.75l1.65,2.291c1.756,2.438,3.422,5.02,4.953,7.672
				c1.87,3.233,3.554,6.624,5.012,10.069l0.208,0.497l-0.204,0.493c-3.076,7.453-7.108,14.472-11.988,20.861
				c-4.42,5.777-9.512,11.015-15.138,15.568c-3.746,3.038-7.787,5.815-12.01,8.254C159.67,216.785,143.745,221.061,127.629,221.061z
				 M73.575,200.548c15.517,11.596,34.576,17.947,54.054,17.947c15.668,0,31.146-4.155,44.765-12.02
				c4.105-2.37,8.035-5.07,11.678-8.025c5.468-4.427,10.419-9.519,14.714-15.133c4.633-6.068,8.483-12.724,11.448-19.786
				c-1.366-3.182-2.932-6.304-4.659-9.295c-1.016-1.759-2.093-3.487-3.217-5.16c-3.771,13.896-11.236,26.36-21.707,36.19
				c-4.329,4.071-9.157,7.657-14.351,10.657c-1.044,0.603-1.973,1.109-2.834,1.553c-11.024,5.777-23.432,8.834-35.87,8.834
				c-12.352,0-24.674-2.979-35.669-8.624C85.905,199.164,79.749,200.124,73.575,200.548z"/>
		</g>
		<g>
			<path fill="#E2D96A" d="M203.713,125.474c5.158,5.333,9.755,11.194,13.71,17.507c5.719-36.188-10.856-73.858-44.429-93.24
				c-4.222-2.437-8.558-4.496-12.975-6.188c-6.783-2.604-13.75-4.338-20.755-5.251c-7.933-1.024-15.906-0.991-23.727,0.049
				c-2.229,2.948-4.275,6.032-6.129,9.243c-1.511,2.614-2.881,5.282-4.108,8.011c14.161-4.296,29.544-4.492,44.183-0.071
				c5.521,1.662,10.93,3.979,16.133,6.981c0.918,0.53,1.826,1.075,2.71,1.646C190.112,77.953,202.669,101.23,203.713,125.474z"/>
			<path fill="#FAF1DE" d="M218.154,146.564l-1.817-2.903c-3.885-6.201-8.44-12.02-13.546-17.296l-0.338-0.351l-0.021-0.485
				c-1.061-24.628-14.066-47.164-34.791-60.284c-0.786-0.509-1.655-1.036-2.665-1.619c-5.021-2.899-10.36-5.209-15.861-6.864
				c-6.985-2.11-14.238-3.18-21.558-3.18c-7.411,0-14.774,1.094-21.884,3.25l-2.699,0.819l1.157-2.573
				c1.231-2.737,2.634-5.47,4.167-8.126c1.867-3.234,3.959-6.389,6.218-9.376l0.322-0.428l0.531-0.07
				c7.96-1.059,16.12-1.075,24.061-0.049c7.214,0.94,14.297,2.732,21.051,5.326c4.504,1.726,8.93,3.836,13.154,6.273
				c16.482,9.518,29.439,23.654,37.47,40.888c7.849,16.841,10.473,35.398,7.587,53.663L218.154,146.564z M204.972,124.932
				c4.291,4.477,8.201,9.329,11.652,14.463c4.203-35.404-13.286-70.654-44.271-88.544c-4.107-2.37-8.41-4.423-12.791-6.1
				c-6.565-2.521-13.45-4.263-20.462-5.177c-7.541-0.976-15.287-0.982-22.86-0.021c-2.072,2.774-3.994,5.692-5.72,8.683
				c-1.017,1.762-1.976,3.559-2.861,5.367c6.499-1.716,13.18-2.586,19.898-2.586c7.569,0,15.072,1.106,22.297,3.289
				c5.69,1.712,11.209,4.101,16.406,7.099c1.045,0.604,1.948,1.153,2.763,1.678C190.312,76.561,203.728,99.655,204.972,124.932z"/>
		</g>
	</g>
	<circle id="bigdisc" fill="#471D1C" stroke="#9E3636" stroke-width="3" stroke-miterlimit="10" cx="127.389" cy="46.012" r="15.5" />
	<circle id="littledisc" fill="#9E3636" stroke="#471D1C" stroke-width="3" stroke-miterlimit="10" cx="127.389" cy="46.012" r="11.5" />
	<g>
		<g>
			<path fill="#E4B76A" d="M127.394,8.133c-3.892,2.783-7.608,5.847-11.056,9.115c-8.226,7.8-15.091,16.849-20.408,26.896
				c-3.426,6.463-6.188,13.319-8.206,20.379c-3.411,11.922-4.689,24.169-3.81,36.432c3.882-1.725,7.894-3.226,11.962-4.477
				c-0.45-14.203,2.409-28.526,8.289-41.489c2.815-6.208,6.306-12.09,10.375-17.482c3.553-4.724,7.592-9.129,12.006-13.094
				l0.856-0.768l2.68-13.529l-2.68-1.976C127.398,8.138,127.396,8.136,127.394,8.133z"/>
			<path fill="#FAF1DE" d="M127.39,4.996l-0.736,0.517c-4.261,2.992-8.325,6.313-12.081,9.874
				c-8.427,7.991-15.462,17.263-20.909,27.556c-3.509,6.62-6.337,13.643-8.406,20.875c-3.664,12.812-4.927,25.993-3.752,39.174
				l0.163,1.82l1.656-0.771c4.583-2.132,9.372-3.946,14.236-5.392l0.958-0.284l-0.042-1c-0.604-14.128,2.172-28.415,8.025-41.315
				c2.738-6.038,6.131-11.756,10.087-17c3.223-4.284,6.855-8.298,10.813-11.945v-1.734v-1.725l-0.856,0.768
				c-4.414,3.965-8.453,8.37-12.006,13.094c-4.069,5.393-7.56,11.274-10.375,17.482c-5.88,12.963-8.739,27.286-8.289,41.489
				c-4.068,1.251-8.08,2.752-11.962,4.477c-0.88-12.263,0.398-24.51,3.81-36.432c2.019-7.06,4.78-13.916,8.206-20.379
				c5.317-10.047,12.183-19.096,20.408-26.896c3.447-3.269,7.164-6.332,11.056-9.115c0.003,0.003,0.005,0.005,0.009,0.007V6.57
				V5.004L127.39,4.996z"/>
		</g>
	</g>
	<g>
		<g>
			<path fill="#E4B76A" d="M23.095,188.771c4.355,1.979,8.867,3.665,13.422,5.018c10.867,3.223,22.136,4.645,33.495,4.226
				c7.31-0.265,14.629-1.302,21.752-3.083c12.03-3.007,23.275-8.023,33.455-14.917c-3.435-2.499-6.74-5.223-9.857-8.121
				c-12.075,7.492-25.909,12.178-40.075,13.565c-6.784,0.667-13.624,0.586-20.328-0.243c-5.867-0.715-11.702-2.01-17.342-3.85
				l-1.094-0.357l-13.056,4.443l-0.372,3.308C23.097,188.765,23.095,188.768,23.095,188.771z"/>
			<path fill="#FAF1DE" d="M20.38,190.344l0.815,0.379c4.722,2.193,9.631,4.053,14.592,5.525c11.133,3.302,22.68,4.759,34.318,4.33
				c7.487-0.271,14.983-1.334,22.281-3.158c12.928-3.231,24.974-8.729,35.802-16.336l1.495-1.052l-1.496-1.05
				c-4.139-2.902-8.104-6.143-11.789-9.633l-0.726-0.687l-0.844,0.535c-11.934,7.587-25.694,12.326-39.793,13.708
				c-6.598,0.647-13.246,0.568-19.766-0.236c-5.321-0.648-10.613-1.788-15.752-3.391l-1.502,0.865l-1.494,0.864l1.094,0.357
				c5.64,1.84,11.475,3.135,17.342,3.85c6.704,0.829,13.544,0.91,20.328,0.243c14.166-1.388,28-6.073,40.075-13.565
				c3.117,2.898,6.423,5.622,9.857,8.121c-10.18,6.894-21.425,11.91-33.455,14.917c-7.123,1.781-14.442,2.818-21.752,3.083
				c-11.359,0.419-22.628-1.003-33.495-4.226c-4.555-1.353-9.066-3.038-13.422-5.018c0-0.004,0.002-0.007,0-0.012l-1.358,0.785
				l-1.356,0.784V190.344z"/>
		</g>
	</g>
	<g>
		<g>
			<path fill="#E4B76A" d="M231.682,188.777c-0.465-4.761-1.26-9.51-2.366-14.132c-2.643-11.022-7.045-21.493-13.088-31.12
				c-3.884-6.199-8.441-12.021-13.547-17.297c-8.618-8.915-18.586-16.146-29.645-21.516c-0.447,4.224-1.153,8.45-2.105,12.599
				c12.526,6.712,23.501,16.35,31.787,27.923c3.969,5.542,7.318,11.506,9.954,17.728c2.312,5.437,4.108,11.139,5.335,16.942
				l0.237,1.125l10.377,9.086l3.05-1.332C231.674,188.779,231.678,188.779,231.682,188.777z"/>
			<path fill="#FAF1DE" d="M234.4,190.343l-0.08-0.896c-0.461-5.186-1.305-10.367-2.511-15.399
				c-2.706-11.294-7.219-22.021-13.409-31.886c-3.978-6.349-8.647-12.311-13.875-17.717c-9.264-9.58-20.047-17.265-32.049-22.837
				l-1.657-0.77l-0.161,1.82c-0.446,5.035-1.269,10.09-2.449,15.024l-0.232,0.974l0.887,0.464
				c12.537,6.539,23.521,16.087,31.767,27.606c3.861,5.391,7.115,11.188,9.68,17.236c2.1,4.933,3.759,10.086,4.938,15.336
				l1.503,0.867l1.494,0.862l-0.237-1.125c-1.227-5.804-3.022-11.506-5.335-16.942c-2.636-6.222-5.985-12.186-9.954-17.728
				c-8.286-11.573-19.261-21.211-31.787-27.923c0.952-4.148,1.658-8.375,2.105-12.599c11.059,5.369,21.026,12.601,29.645,21.516
				c5.105,5.276,9.663,11.098,13.547,17.297c6.043,9.627,10.445,20.098,13.088,31.12c1.106,4.622,1.901,9.371,2.366,14.132
				c-0.004,0.002-0.008,0.002-0.011,0.006l1.358,0.784l1.356,0.782L234.4,190.343z"/>
		</g>
	</g>
</g>
</svg>
